<mxfile host="app.diagrams.net" agent="Mozilla/5.0 (Macintosh; Intel Mac OS X 10_15_7) AppleWebKit/537.36 (KHTML, like Gecko) Chrome/128.0.0.0 Safari/537.36" version="24.7.8">
  <diagram name="第 1 页" id="CHzktJIyDTGoVnoxUjND">
    <mxGraphModel dx="928" dy="1025" grid="0" gridSize="10" guides="1" tooltips="1" connect="1" arrows="1" fold="1" page="0" pageScale="1" pageWidth="827" pageHeight="1169" math="0" shadow="0">
      <root>
        <mxCell id="0" />
        <mxCell id="1" parent="0" />
        <mxCell id="wkB41oXYIjNeS8UKcueU-6" style="edgeStyle=orthogonalEdgeStyle;rounded=0;orthogonalLoop=1;jettySize=auto;html=1;exitX=1;exitY=0;exitDx=0;exitDy=0;entryX=0.25;entryY=1;entryDx=0;entryDy=0;" parent="1" source="Dt9UJWmZm42FvVJHh4BI-1" target="wkB41oXYIjNeS8UKcueU-4" edge="1">
          <mxGeometry relative="1" as="geometry" />
        </mxCell>
        <mxCell id="wkB41oXYIjNeS8UKcueU-7" style="rounded=0;orthogonalLoop=1;jettySize=auto;html=1;exitX=1;exitY=0;exitDx=0;exitDy=0;entryX=0;entryY=1;entryDx=0;entryDy=0;" parent="1" source="Dt9UJWmZm42FvVJHh4BI-1" target="wkB41oXYIjNeS8UKcueU-5" edge="1">
          <mxGeometry relative="1" as="geometry">
            <mxPoint x="420" y="50" as="targetPoint" />
          </mxGeometry>
        </mxCell>
        <mxCell id="Dt9UJWmZm42FvVJHh4BI-1" value="齐次线性方程组解问题" style="rounded=1;whiteSpace=wrap;html=1;fillColor=#dae8fc;strokeColor=#6c8ebf;" parent="1" vertex="1">
          <mxGeometry x="255" y="104" width="125" height="60" as="geometry" />
        </mxCell>
        <mxCell id="Dt9UJWmZm42FvVJHh4BI-2" value="" style="endArrow=none;dashed=1;html=1;dashPattern=1 3;strokeWidth=2;rounded=0;" parent="1" edge="1">
          <mxGeometry width="50" height="50" relative="1" as="geometry">
            <mxPoint x="29" y="206" as="sourcePoint" />
            <mxPoint x="762" y="209" as="targetPoint" />
          </mxGeometry>
        </mxCell>
        <mxCell id="Dt9UJWmZm42FvVJHh4BI-3" value="主线 1" style="text;html=1;align=center;verticalAlign=middle;whiteSpace=wrap;rounded=0;" parent="1" vertex="1">
          <mxGeometry x="713" y="171" width="60" height="30" as="geometry" />
        </mxCell>
        <mxCell id="Dt9UJWmZm42FvVJHh4BI-4" value="主线 2" style="text;html=1;align=center;verticalAlign=middle;whiteSpace=wrap;rounded=0;" parent="1" vertex="1">
          <mxGeometry x="713" y="216" width="60" height="30" as="geometry" />
        </mxCell>
        <mxCell id="Dt9UJWmZm42FvVJHh4BI-10" style="rounded=0;orthogonalLoop=1;jettySize=auto;html=1;exitX=1;exitY=0;exitDx=0;exitDy=0;entryX=0;entryY=1;entryDx=0;entryDy=0;" parent="1" source="Dt9UJWmZm42FvVJHh4BI-5" target="Dt9UJWmZm42FvVJHh4BI-1" edge="1">
          <mxGeometry relative="1" as="geometry" />
        </mxCell>
        <mxCell id="Dt9UJWmZm42FvVJHh4BI-5" value="特征值/向量" style="rounded=1;whiteSpace=wrap;html=1;fillColor=#d5e8d4;strokeColor=#82b366;" parent="1" vertex="1">
          <mxGeometry x="79" y="230" width="120" height="60" as="geometry" />
        </mxCell>
        <mxCell id="Dt9UJWmZm42FvVJHh4BI-9" style="rounded=0;orthogonalLoop=1;jettySize=auto;html=1;exitX=0;exitY=0;exitDx=0;exitDy=0;entryX=1;entryY=1;entryDx=0;entryDy=0;" parent="1" source="Dt9UJWmZm42FvVJHh4BI-6" target="Dt9UJWmZm42FvVJHh4BI-5" edge="1">
          <mxGeometry relative="1" as="geometry" />
        </mxCell>
        <mxCell id="Dt9UJWmZm42FvVJHh4BI-6" value="相似对角化问题" style="rounded=1;whiteSpace=wrap;html=1;fillColor=#d5e8d4;strokeColor=#82b366;" parent="1" vertex="1">
          <mxGeometry x="444" y="313" width="120" height="60" as="geometry" />
        </mxCell>
        <mxCell id="Dt9UJWmZm42FvVJHh4BI-8" style="edgeStyle=orthogonalEdgeStyle;rounded=0;orthogonalLoop=1;jettySize=auto;html=1;exitX=0.5;exitY=0;exitDx=0;exitDy=0;entryX=0.5;entryY=1;entryDx=0;entryDy=0;" parent="1" source="Dt9UJWmZm42FvVJHh4BI-7" target="Dt9UJWmZm42FvVJHh4BI-6" edge="1">
          <mxGeometry relative="1" as="geometry" />
        </mxCell>
        <mxCell id="Dt9UJWmZm42FvVJHh4BI-7" value="二次型标准化" style="rounded=1;whiteSpace=wrap;html=1;fillColor=#d5e8d4;strokeColor=#82b366;" parent="1" vertex="1">
          <mxGeometry x="444" y="443" width="120" height="60" as="geometry" />
        </mxCell>
        <mxCell id="Dt9UJWmZm42FvVJHh4BI-11" value="矩阵正交化方法" style="text;html=1;align=center;verticalAlign=middle;whiteSpace=wrap;rounded=0;" parent="1" vertex="1">
          <mxGeometry x="515" y="393" width="100" height="30" as="geometry" />
        </mxCell>
        <mxCell id="Dt9UJWmZm42FvVJHh4BI-13" style="rounded=0;orthogonalLoop=1;jettySize=auto;html=1;exitX=1;exitY=1;exitDx=0;exitDy=0;entryX=0;entryY=0;entryDx=0;entryDy=0;" parent="1" source="Dt9UJWmZm42FvVJHh4BI-12" target="Dt9UJWmZm42FvVJHh4BI-1" edge="1">
          <mxGeometry relative="1" as="geometry" />
        </mxCell>
        <mxCell id="Dt9UJWmZm42FvVJHh4BI-12" value="向量组相关性问题" style="rounded=1;whiteSpace=wrap;html=1;fillColor=#dae8fc;strokeColor=#6c8ebf;" parent="1" vertex="1">
          <mxGeometry x="61" y="1" width="120" height="60" as="geometry" />
        </mxCell>
        <mxCell id="wkB41oXYIjNeS8UKcueU-8" style="rounded=0;orthogonalLoop=1;jettySize=auto;html=1;exitX=0;exitY=0;exitDx=0;exitDy=0;entryX=1;entryY=1;entryDx=0;entryDy=0;" parent="1" source="wkB41oXYIjNeS8UKcueU-1" target="wkB41oXYIjNeS8UKcueU-4" edge="1">
          <mxGeometry relative="1" as="geometry" />
        </mxCell>
        <mxCell id="wkB41oXYIjNeS8UKcueU-9" style="rounded=0;orthogonalLoop=1;jettySize=auto;html=1;exitX=0;exitY=0;exitDx=0;exitDy=0;entryX=1;entryY=1;entryDx=0;entryDy=0;" parent="1" source="wkB41oXYIjNeS8UKcueU-1" target="wkB41oXYIjNeS8UKcueU-5" edge="1">
          <mxGeometry relative="1" as="geometry" />
        </mxCell>
        <mxCell id="wkB41oXYIjNeS8UKcueU-1" value="非齐次线性方程组解问题" style="rounded=1;whiteSpace=wrap;html=1;fillColor=#dae8fc;strokeColor=#6c8ebf;" parent="1" vertex="1">
          <mxGeometry x="497" y="104" width="137" height="60" as="geometry" />
        </mxCell>
        <mxCell id="wkB41oXYIjNeS8UKcueU-3" style="rounded=0;orthogonalLoop=1;jettySize=auto;html=1;exitX=0;exitY=1;exitDx=0;exitDy=0;entryX=1;entryY=0;entryDx=0;entryDy=0;" parent="1" source="wkB41oXYIjNeS8UKcueU-2" target="wkB41oXYIjNeS8UKcueU-1" edge="1">
          <mxGeometry relative="1" as="geometry" />
        </mxCell>
        <mxCell id="wkB41oXYIjNeS8UKcueU-2" value="向量组表示性问题" style="rounded=1;whiteSpace=wrap;html=1;fillColor=#dae8fc;strokeColor=#6c8ebf;" parent="1" vertex="1">
          <mxGeometry x="677" y="4" width="120" height="60" as="geometry" />
        </mxCell>
        <mxCell id="wkB41oXYIjNeS8UKcueU-4" value="行列式" style="rounded=1;whiteSpace=wrap;html=1;fillColor=#dae8fc;strokeColor=#6c8ebf;" parent="1" vertex="1">
          <mxGeometry x="368" y="-29" width="50" height="50" as="geometry" />
        </mxCell>
        <mxCell id="wkB41oXYIjNeS8UKcueU-5" value="矩阵的秩" style="rounded=1;whiteSpace=wrap;html=1;fillColor=#dae8fc;strokeColor=#6c8ebf;" parent="1" vertex="1">
          <mxGeometry x="444" y="-29" width="50" height="50" as="geometry" />
        </mxCell>
        <mxCell id="yyDhrhu_qTqSAwpFkJiz-4" style="rounded=0;orthogonalLoop=1;jettySize=auto;html=1;exitX=1;exitY=0;exitDx=0;exitDy=0;entryX=0;entryY=1;entryDx=0;entryDy=0;" edge="1" parent="1" source="yyDhrhu_qTqSAwpFkJiz-1" target="yyDhrhu_qTqSAwpFkJiz-2">
          <mxGeometry relative="1" as="geometry" />
        </mxCell>
        <mxCell id="yyDhrhu_qTqSAwpFkJiz-5" style="rounded=0;orthogonalLoop=1;jettySize=auto;html=1;exitX=1;exitY=1;exitDx=0;exitDy=0;entryX=0;entryY=0;entryDx=0;entryDy=0;" edge="1" parent="1" source="yyDhrhu_qTqSAwpFkJiz-1" target="yyDhrhu_qTqSAwpFkJiz-3">
          <mxGeometry relative="1" as="geometry" />
        </mxCell>
        <mxCell id="yyDhrhu_qTqSAwpFkJiz-1" value="极限" style="rounded=1;whiteSpace=wrap;html=1;" vertex="1" parent="1">
          <mxGeometry x="1101" y="227" width="120" height="60" as="geometry" />
        </mxCell>
        <mxCell id="yyDhrhu_qTqSAwpFkJiz-6" style="edgeStyle=orthogonalEdgeStyle;rounded=0;orthogonalLoop=1;jettySize=auto;html=1;exitX=0.5;exitY=1;exitDx=0;exitDy=0;entryX=0.5;entryY=0;entryDx=0;entryDy=0;" edge="1" parent="1" source="yyDhrhu_qTqSAwpFkJiz-2" target="yyDhrhu_qTqSAwpFkJiz-3">
          <mxGeometry relative="1" as="geometry" />
        </mxCell>
        <mxCell id="yyDhrhu_qTqSAwpFkJiz-2" value="连续/间断理论" style="rounded=1;whiteSpace=wrap;html=1;" vertex="1" parent="1">
          <mxGeometry x="1283" y="104" width="120" height="60" as="geometry" />
        </mxCell>
        <mxCell id="yyDhrhu_qTqSAwpFkJiz-3" value="微分学" style="rounded=1;whiteSpace=wrap;html=1;fillColor=#f8cecc;strokeColor=#b85450;" vertex="1" parent="1">
          <mxGeometry x="1283" y="349" width="120" height="60" as="geometry" />
        </mxCell>
      </root>
    </mxGraphModel>
  </diagram>
</mxfile>
